<svg xmlns="http://www.w3.org/2000/svg" width="100" height="100" viewBox="0 0 24 24">
  <path d="M8.25 10.5c.83 0 1.5-.67 1.5-1.5s-.67-1.5-1.5-1.5-1.5.67-1.5 1.5.67 1.5 1.5 1.5zm7.5-3c-.83 0-1.5.67-1.5 1.5s.67 1.5 1.5 1.5 1.5-.67 1.5-1.5-.67-1.5-1.5-1.5zm.375 6.75h-8.25c-.619 0-1.125.506-1.125 1.125S7.256 16.5 7.875 16.5h8.25c.619 0 1.125-.506 1.125-1.125s-.506-1.125-1.125-1.125zM12 0C5.387 0 0 5.387 0 12c0 2.146.576 4.164 1.566 5.91L.668 20.6a1.2 1.2 0 0 0 0 .004l-.004.011c-.095.286-.175.514-.236.774-.062.263-.133.623.025 1.066a1.2 1.2 0 0 0 0 .002c.182.51.583.909 1.092 1.09.442.158.801.087 1.064.025.264-.061.493-.141.784-.238a1.2 1.2 0 0 0 .035-.012l.02-.007 2.642-.881A11.952 11.952 0 0 0 12 24c6.613 0 12-5.387 12-12S18.613 0 12 0zm0 2.4c5.316 0 9.6 4.284 9.6 9.6s-4.284 9.6-9.6 9.6a9.542 9.542 0 0 1-4.781-1.274 1.2 1.2 0 0 0-.012-.006c-.153-.088-.284-.188-.584-.271a1.954 1.954 0 0 0-.602-.06H6.02c-.296.02-.452.09-.61.142l-2.314.771.771-2.312c.054-.161.123-.324.143-.611a1.93 1.93 0 0 0-.059-.602c-.083-.3-.181-.43-.27-.582a1.2 1.2 0 0 0-.001-.004l-.002-.002-.002-.002v-.002A9.541 9.541 0 0 1 2.4 12c0-5.316 4.284-9.6 9.6-9.6z"/>
</svg>
